<svg width="88" height="88" viewBox="0 0 88 88" fill="none" xmlns="http://www.w3.org/2000/svg">
<path d="M78.3028 18.0881L45.3028 7.0881C44.4577 6.80283 43.5423 6.80283 42.6972 7.0881L9.69722 18.0881C8.90981 18.3489 8.21931 18.841 7.71586 19.5002C7.2124 20.1594 6.91938 20.9551 6.87504 21.7834C6.87124 21.8556 6.87124 21.9278 6.87504 22V49.5C6.87504 50.594 7.30963 51.6432 8.08322 52.4168C8.85681 53.1904 9.90602 53.625 11 53.625C12.0941 53.625 13.1433 53.1904 13.9169 52.4168C14.6904 51.6432 15.125 50.594 15.125 49.5V27.7234L23.2753 30.439C20.7459 35.2808 19.9942 40.8561 21.1511 46.1948C22.3081 51.5335 25.3004 56.2976 29.6072 59.6578C23.9712 62.4371 19.2013 66.703 15.8125 71.995C15.5074 72.4485 15.2954 72.9582 15.1889 73.4944C15.0825 74.0306 15.0837 74.5827 15.1925 75.1184C15.3012 75.6541 15.5154 76.1629 15.8225 76.6152C16.1296 77.0674 16.5236 77.4541 16.9815 77.7527C17.4394 78.0514 17.952 78.256 18.4897 78.3548C19.0274 78.4536 19.5793 78.4445 20.1134 78.3281C20.6476 78.2116 21.1532 77.9902 21.601 77.6767C22.0488 77.3631 22.4298 76.9637 22.7219 76.5015C27.6272 68.9528 35.4063 64.625 44 64.625C52.5938 64.625 60.3728 68.9528 65.2953 76.5015C65.5874 76.9637 65.9684 77.3631 66.4162 77.6767C66.864 77.9902 67.3697 78.2116 67.9038 78.3281C68.4379 78.4445 68.9899 78.4536 69.5276 78.3548C70.0652 78.256 70.5779 78.0514 71.0358 77.7527C71.4937 77.4541 71.8876 77.0674 72.1947 76.6152C72.5019 76.1629 72.716 75.6541 72.8248 75.1184C72.9336 74.5827 72.9348 74.0306 72.8283 73.4944C72.7219 72.9582 72.5099 72.4485 72.2047 71.995C68.8127 66.6968 64.0365 62.427 58.3928 59.6475C62.6997 56.2872 65.692 51.5232 66.8489 46.1845C68.0059 40.8458 67.2542 35.2704 64.7247 30.4287L78.3028 25.9015C79.1231 25.6271 79.8364 25.1017 80.3418 24.3997C80.8472 23.6978 81.1191 22.8547 81.1191 21.9897C81.1191 21.1247 80.8472 20.2816 80.3418 19.5796C79.8364 18.8776 79.1231 18.3522 78.3028 18.0778V18.0881ZM44 15.3381L63.9547 22L44 28.6515L24.0625 22L44 15.3381ZM59.125 41.25C59.1255 43.5993 58.5786 45.9164 57.5279 48.0176C56.4772 50.1188 54.9514 51.9464 53.0715 53.3554C51.1917 54.7645 49.0094 55.7163 46.6978 56.1353C44.3862 56.5543 42.0087 56.4291 39.7539 55.7696C37.4991 55.11 35.4289 53.9343 33.7074 52.3356C31.986 50.7369 30.6606 48.7592 29.8364 46.5592C29.0122 44.3592 28.7118 41.9975 28.959 39.6612C29.2062 37.325 29.9943 35.0784 31.2607 33.0997L42.6972 36.9119C43.5425 37.1959 44.4575 37.1959 45.3028 36.9119L56.7394 33.0997C58.2993 35.5317 59.1274 38.3607 59.125 41.25Z" fill="#AAC897"/>
</svg>
