<svg width="134" height="48" viewBox="0 0 134 48" fill="none" xmlns="http://www.w3.org/2000/svg">
<rect width="134" height="48" rx="24" fill="#FAF64C"/>
<path d="M55.7664 19.646V23.318H60.0864V24.992H55.7664V28.826H60.6264V30.5H53.7144V17.972H60.6264V19.646H55.7664ZM67.2038 25.478L70.4078 30.5H68.0858L65.9438 27.134L63.9278 30.5H61.7858L64.9898 25.622L61.7858 20.582H64.1078L66.2498 23.948L68.2658 20.582H70.4078L67.2038 25.478ZM72.7843 19.268C72.4123 19.268 72.1003 19.142 71.8483 18.89C71.5963 18.638 71.4703 18.326 71.4703 17.954C71.4703 17.582 71.5963 17.27 71.8483 17.018C72.1003 16.766 72.4123 16.64 72.7843 16.64C73.1443 16.64 73.4503 16.766 73.7023 17.018C73.9543 17.27 74.0803 17.582 74.0803 17.954C74.0803 18.326 73.9543 18.638 73.7023 18.89C73.4503 19.142 73.1443 19.268 72.7843 19.268ZM73.7923 20.582V30.5H71.7403V20.582H73.7923ZM78.6824 22.256V27.746C78.6824 28.118 78.7664 28.388 78.9344 28.556C79.1144 28.712 79.4144 28.79 79.8344 28.79H81.0944V30.5H79.4744C78.5504 30.5 77.8424 30.284 77.3504 29.852C76.8584 29.42 76.6124 28.718 76.6124 27.746V22.256H75.4424V20.582H76.6124V18.116H78.6824V20.582H81.0944V22.256H78.6824Z" fill="#292929"/>
</svg>
