<svg width="88" height="88" viewBox="0 0 88 88" fill="none" xmlns="http://www.w3.org/2000/svg">
<path d="M18.3334 34.8334C18.3334 34.8334 8.90454 38.5 7.33337 51.3334M69.6667 34.8334C69.6667 34.8334 79.0955 38.5 80.6667 51.3334M33 34.8334C33 34.8334 41.8 36.9729 44 47.6667C46.2 36.9729 55 34.8334 55 34.8334M36.6667 62.3334C36.6667 62.3334 28.9667 63.7084 25.6667 73.3334M51.3334 62.3334C51.3334 62.3334 59.0334 63.7084 62.3334 73.3334" stroke="#AAC897" stroke-width="7" stroke-linecap="round"/>
<path d="M44 66C49.0627 66 53.1667 61.896 53.1667 56.8334C53.1667 51.7707 49.0627 47.6667 44 47.6667C38.9374 47.6667 34.8334 51.7707 34.8334 56.8334C34.8334 61.896 38.9374 66 44 66Z" stroke="#AAC897" stroke-width="7" stroke-linecap="round" stroke-linejoin="round"/>
<path d="M62.3334 36.6667C68.4085 36.6667 73.3334 31.7418 73.3334 25.6667C73.3334 19.5916 68.4085 14.6667 62.3334 14.6667C56.2582 14.6667 51.3334 19.5916 51.3334 25.6667C51.3334 31.7418 56.2582 36.6667 62.3334 36.6667Z" stroke="#AAC897" stroke-width="7" stroke-linecap="round" stroke-linejoin="round"/>
<path d="M25.6667 36.6667C31.7419 36.6667 36.6667 31.7418 36.6667 25.6667C36.6667 19.5916 31.7419 14.6667 25.6667 14.6667C19.5916 14.6667 14.6667 19.5916 14.6667 25.6667C14.6667 31.7418 19.5916 36.6667 25.6667 36.6667Z" stroke="#AAC897" stroke-width="7" stroke-linecap="round" stroke-linejoin="round"/>
</svg>
