<svg width="88" height="88" viewBox="0 0 88 88" fill="none" xmlns="http://www.w3.org/2000/svg">
<path fill-rule="evenodd" clip-rule="evenodd" d="M51.7917 73.2306C50.9777 73.832 50.094 74.3306 49.1223 74.5873C46.387 75.3206 43.3987 74.228 40.788 73.4946C23.287 68.5703 11.5647 60.8593 8.20232 49.3533C5.51832 40.1646 8.09966 30.9613 13.7757 25.2413C19.0337 19.943 26.829 17.7943 34.826 21.2373C40.0327 14.256 47.861 12.2173 55.0623 14.179C62.8357 16.2946 69.6703 22.9753 71.94 32.274C72.3849 34.0975 72.6085 35.9541 72.611 37.8436C73.5496 38.3252 74.4296 38.9119 75.251 39.6036C79.4933 43.1933 81.7593 49.291 80.4943 55.6306C78.881 63.7193 71.3827 69.399 60.6576 73.4543C58.8206 74.151 56.8113 75.0126 54.8057 74.6606C53.691 74.4626 52.6937 73.8906 51.7917 73.2306ZM15.2423 47.2963C13.2807 40.5753 15.2533 34.166 18.9823 30.4076C22.561 26.7996 27.8667 25.4576 33.7333 28.8896C35.783 30.0886 38.4267 29.3773 39.6 27.3203C42.966 21.4133 48.2313 19.921 53.1337 21.2556C58.245 22.649 63.1583 27.2103 64.8157 34.012C65.0185 34.8284 65.153 35.6656 65.219 36.5236C63.8756 36.6955 62.5655 37.0675 61.3323 37.6273C57.3943 33.7883 52.1803 33.033 47.5823 34.727C42.3683 36.6446 38.1517 41.602 37.169 47.993C36.168 54.538 39.259 60.918 45.012 67.0523C44.286 66.869 43.5343 66.649 42.7753 66.4363C25.795 61.6586 17.4753 54.9413 15.2423 47.2963ZM44.4217 49.104C45.0083 45.254 47.498 42.5736 50.116 41.6056C52.536 40.7183 55.2237 41.184 57.266 44.1356C57.5705 44.5754 57.9592 44.9505 58.4095 45.2392C58.8599 45.5279 59.363 45.7245 59.8897 45.8176C60.4165 45.9106 60.9565 45.8984 61.4785 45.7815C62.0005 45.6646 62.4942 45.4455 62.931 45.1366C65.8643 43.0576 68.5483 43.5416 70.5137 45.2026C72.6477 47.0066 74.063 50.38 73.3003 54.197C72.4753 58.3403 68.2843 62.733 58.0653 66.594C57.4163 66.8396 56.771 67.1036 56.1037 67.298C55.5427 66.8836 55.0257 66.418 54.4977 65.967C46.2183 58.8426 43.78 53.2803 44.4217 49.1003V49.104Z" fill="#AAC897"/>
</svg>
